<?xml version="1.0" encoding="utf-8"?>
<svg version="1.1" id="Layer_1" xmlns="http://www.w3.org/2000/svg" xmlns:xlink="http://www.w3.org/1999/xlink" x="0px" y="0px"
	 viewBox="0 0 699 977.8" style="enable-background:new 0 0 699 977.8;" xml:space="preserve">
<style type="text/css">
	.st0{fill:#626568;stroke:#FFFFFF;stroke-width:0.5;stroke-miterlimit:10;}
	.st1{fill:#8E9091;stroke:#FFFFFF;stroke-width:0.5;stroke-miterlimit:10;}
	.st2{fill:#313131;stroke:#FFFFFF;stroke-width:0.5;stroke-miterlimit:10;}
	.st3{fill:#00D5DF;stroke:#FFFFFF;stroke-width:0.5;stroke-miterlimit:10;}
</style>

<g class="st1 county1">
  <path d="M452.4,310.5l0.3,1.9l-1.8,2.6l-4.1,3.4l-1.7,0.5l-1.1,2.6l-7.6,10l-1.4,8.9l-2.8,4.7c0,0-2.6,1.6-2.6,1.7
		c0,0.2-4.1,11.4-4.1,11.4l-2.7,3.4l-8.4,5.6c0,0-1.8,3.5-2.2,6.1l-2.8,1l-0.4,4.6l-3.4,2.9l-0.7,1l-9.4,6.3l-2.6-1.7l-4.1,1.1
		l-1.7-1.2l-2.3,1.5l-4.3-1.3c0,0-3.3,1.4-4.8,2.3c-1.5,0.9-6.5,4.2-6.5,4.2s-0.3,1.6-0.2,1.6c0.1,0,3.3-0.3,3.3-0.3s2.9-2,4.8-2.8
		c1.9-0.8,5.5-1.6,8.3-1.9l1.1-1.3l4.9,1.9l2.2,9.4l2.5,1.2l2.4,2.7l0.4,2.9l-3.2,2.8c0,0-2.7,0.2-5.8,1.8l-5.1,0l-3.9-2.7l-3,2
		l-2.9,3l-2.1,0l-2.3,2.2l-0.9,3.4l-2.7,0.7l-2.1-1.5l-1.9,1.9l-3.7-0.2l-0.7,1.6l-2.8-0.4l-11.4-7.4l-2.1,0l2.6,5.8l7.5,1.5
		l3.8,2.2l3.3,0.2l5.3,2.3l4-0.1l1.3,1.9l2.5,2l4.3,0.2l9.4-7.9l6.3,1l6.4,5.2l7.2,7.3l1.2,0.1l1.4,2.4l2.9,0l1.5-0.3l2.8,1.9
		l0.3,2.4l2.1,1.7l0,2.7l1.1,0.8l0.1,1.8l-2.2,2.9l-3.6,3.2l-4.4,3.8l-1.7,2.5l-2.5-1l-2.5,1l5.9,14.9l-9.2,5.1v2.6h-7l-2.9,2.9
		l-1.9,1l-7.7,8.3l-8.1,4.5l-4.4,3.1l-6.6,0.7L359,511l-11.1-0.7l-13.8-2.7l-1.5,7.8l-4.6-1.1l-4.9,2.3l-1.9-3.3l-1.3,5.6l-1.8,0.2
		l-1.3,1.4l-4.3,2.1l-4.2-2.1l-3.2,0.1l-2.6-1.9c0,0-0.4-1.6-1.4-2.5c-1-0.9-4.1-4.2-4.1-4.2l-5.6-3.3l2.9,7l0.7,0.7l-2.5,3.9l0,4.7
		l-2.5,1.3l-2-1L275,510.8l-1.9-4.7l-6.6,2.7l-0.8,7.2l0.3,8.2l-2.1,0l-2-4.8l1.2-2.7l-1.9-5.6l-3.3-4.7l-2.6-7.3l1.9-6.5l3.3-1.1
		l1.8,0.6l-0.3,5.9l0.7,2.6l1.2-0.7l0.9-4.6c0,0-0.9-3.9-0.9-4s-0.1-1.6-0.1-1.6l8.1-10.9l4.7-2.7l2-5.1l5.3-9.2l7.6-4.9l-0.8-5.8
		l-1-0.8l1.9-1.7l-4.2-5.8l-2.6-0.8l-2.6-5.9l3-4.2l0.7-4.3l-0.4-8.2h1.7l3.5-4.9l5.5,3.7l9.4,3.4l2.5,2.9h0.8l-2.2-4.4l-2.5-0.4
		l-7.8-4.2l-0.7-3l-2.4-2.5l-1-4.4h-1.2l0.3,4l1.7,2.5l-3.2,0.8l-1.1-2.6l0.8-2.7l-1.2-1.5l-0.9,2.3l-0.4,3.7l-1.8,0.6l0.6,1.9
		l-2.4,2.6l-1.9,4.4l-3.8-1.4l1.1-2.3l-0.8-6l-1.4,0.1l0.5,5l-0.9,0.8l-1.4-2.3l-2-2l-0.3-2l-1.2,0.2l-0.4,3.4l-1,1l-0.5,5.3
		l-2.2-0.6l-1.6-1.5l-0.2-7.7l0.8-3.9l10.5-10.8l3.8-0.8l3.4-3.9l4.7-2.7l0.4-1.4l-4.7,1.6l-0.5-1.1l-7.4,5.9l-1.4,2l-1.9,0.5
		l-6.5,7.6l-2.6,1.9l-1.8-1.6l-1.5,0.4l0.2,10.8l3.4,7.1l-1.2,3.8l-2.9-0.1l-1.8,2l-4.9,10.6l-0.2,2.6l-1.7,0.5l-1.3,4.1l-5.1,6.1
		l1.3,5L243,462l-5.8-0.1l-4.3-2.5l1.4-6.5l3.2-1.7l2.3-0.1l1.1-11.4l3.7-4.3l0.9-5.2c0,0,5.3-4.5,5.4-4.5c0.1,0,5-2.3,5-2.3l3.1-4
		l-0.8-1.2l-3.6,3.6l-4.4,2.5l-1-1.7l1-1.7l-2.2-1.5l0.8-3l3.2-3.4l1.5-2.3l-0.9-0.9l-2.1,2.4l-1.7-0.1l0-1.5l4.4-4l1-2.8l1.8-0.8
		l-0.1-1.7l-2.1,1l-2.5,3.9l-2.5,1.9l-0.7-1.9l2.5-3l1.8-1.7l4.7-4.9l1.7-0.7l0.4-2.4c0,0,2.2-2.5,2.2-2.6c-0.1,0-1-0.9-1-0.9
		c-0.1,0-2.5,1.9-2.5,1.9l-1.1,1.7l-1.3-0.2l1.5-3l4.6-3.7l-0.5-1.6l3.1-1.6l-0.5-1l-2.1,0.6l-1.4-0.8l-2.4,1.1l-0.8,2l-0.4,2.5
		l-1.2-1l-0.1-3.4l2.2-2.2l0.1-2.6l2-1.5l0.7,2.2l1.5-3l1.9-0.5l0.1-2.7l-0.8-1.8l2.8-1.8l0.6,0.7l2.9-2l2.6,0.4l-1.3-3.2l-1.7,0.2
		l0-1.4l5.1-2.1l-1.1-1.6l1.4-2.8l5.1-4.5l-0.8-1c0,0,1.4-0.9,1.4-0.9c0.1,0,6-0.4,6-0.4l-0.6-2.3l-1.9,0.5l-0.1-1.4l5.1-4.7
		l1.9-2.8l-1.1-0.7l-2.5,3l-1.9,0.7l-1.2,2.3l-4.4,3.7l-4.7,3.2l-1.2-0.9l-2.1,2.6l-1.8,0l-1.2,2.7l-3,3l-3.4,0.9l-0.9,1.4l-2.3-0.4
		l-0.4-2.1l-3.8-2.4l-2.4-0.2l-3.5-3.3l-0.3-2.8c0,0-1.3-2.7-1.3-2.7c0-0.1,0-1.7,0-1.7l7.8-0.1l1.9-0.6h1.1l1.1-1.2l1,0.1l2.3,1.6
		l3,1l3.5,0l-1.5-0.9l-3.5-0.1c0-0.1-1.4-2.5-1.4-2.5l-1.1,0.1l-0.4-0.8l-2.1,0l0,0.6l-1,0.1l-0.6,0.8l-1.1,0c0,0-0.6,0.9-0.7,0.9
		c-0.1,0-0.8-0.9-0.8-0.9l-3.4,0.1l-1.2-1.2l-3.9-0.6l-0.6-1.7l-3.4,1.3l-2.4-1.1l-0.7-3.7l2.7-2.3l9.5,1.5l0-1.5l4.4,3.9l0.8-0.7
		l-1.1-2.1l0.8-2.6l2.6-1.1l4.9-0.8l-1.9-1.7l3-1.5l-0.3-1.2l-7.3,0.5c0,0-2.3-1.1-2.3-1.2c0.1,0,1-1.2,1-1.2h2.7l-0.1-1.9l2.2-2.8
		l0.6-3.1h5.2l3.2,4.4c0,0,5.1-0.2,5.1-0.2c0-0.1,0-1.2,0-1.2l-3.4,0l-1.8-1.2l-0.4-2.8l-2.5-0.5l-1.7-2.1l3.8-4.3l6.8,2.9
		c0,0,2,0,2,0c0-0.1-0.8-3.2-0.8-3.2s-2.7-1.9-2.8-2c-0.1,0-2.4-0.5-2.4-0.5l0.1-2.3l2.9-1.5l0.1-2.7l5.4-1.5l3,4.1c0,0,1.8,0,1.8,0
		c0-0.1-1.3-2.8-1.3-2.8l-2.6-2.8h-3.3l-1.9-1.3h-4.1V295l4.5-3.2l4-0.1l-0.8-2l0.1-4l-3.8,3.7l-2.6,0.9l-3,0l-0.9-3.3l1-4.7l-1.3-3
		l3-8l3.2,0.9l0.5,2l2.5,0.2l0.6,3.5l2.4-1.9l2.8,0.7l1.8-1.3l-2.3-1l-3-0.2l-1.5-1.3l-1.9-3l0.6-0.7l-1.1-3.1l-2,0.2l0.1-1.4
		l4.7-3.6c0,0,0.9,1,1,1c0.1,0,1.3-1,1.3-1l-0.6-2.7l-2.5,0.2l-2-3.2l1.6-1.9l-0.4-3.8l0.8-2.3h5.1l0.5,5.5l1.6,3.1l2.2-1.5l0.9-3.8
		l-2.5-1.1l-0.2-1.6l-0.5-1.6c0,0,1.6-1,1.7-1c0.1-0.1,0.7-1.5,0.7-1.5h1.6l1.8,2l-0.3,3.2l2.6,1l2.5-2.6l4,2.3l1.6,2.7l1.8,0.6
		l-0.3-1.4l-2.2-2.5l-0.1-1.5c0,0-3.2-1.2-3.2-1.3c0-0.1,0.3-1.8,0.3-1.8l1.9,0.3l3.2,2.4l1.6,0.2l2.9,3h1.3l-1.3-2.2l-1.9-1.8
		l1.7-1.1l-2.7-2.8l-1.9-0.8l0.1-2.8l-2.3-2.9l-1.7-0.3l-0.7-4.1l1.6-1.4l2.5,3l2.5,1.1l1.4-3.2l-0.2-2.2l2-1l-2.2-1.9l-0.8-5
		l-1.2-1.1l1.3-2.6l1.9,1.8l0.2,1.3l5.4-0.4l2.5,0.8l1.5-1.1l4,3l1.9-0.2c0,0-4.2-3.5-6-4.8l-1.7-4.8l1.6-3.4l2.2-2.6l1.5,1.7
		l0.9-0.9l-0.1-2.5l1.8-0.1l1.3,1.2l0.6-1.7l-4.6-3.3l1.3-2.8l4.5-4.2l1.7-3.7l1.6,0.2l1.2,1.4l2.6,0l2.3,3.5l-1.4,2.6l0,2.4l1.6,0
		l1.3-6.4l1.5-0.6l0.4,3.5c0,0,2.2,1.1,2.2,1.2c0,0.1,0,2.6,0,2.6l-4.8,4.4l0.4,1.3l3.7-2.1l5.3-6.6l3.6,0.8l2.1,2.7l-1.2,4.8
		l-2.7,2.3l0.1,1.2c0,0,3.9-2.9,4-2.9c0.1,0,2.7-3.8,2.7-3.8l4.2,0l1.3,3l1.3-2.6l2.4,0.1l0.9-2.1l2.8,0.8l0.5,1.3l1.9-0.7v-1.8
		l1.7-0.4l0.4,1.8l9.6,3.2l6.2-2.8l2.3-1.2l2.9,0.5l-0.9,1.1l7.2,2.9l1.6-2.8l-1.4-1l-0.9-2.5l9.4,0.6l0.2,1.6l6.3,2.9
		c0,0-1.5,5.3-3,6.4c-1.5,1-2.4,1.5-2.4,1.5l0.9,4.6l1.2,0.9l-0.1,3.1l-2.4,1.7l-0.9,3.3c0,0-1.5,0.4-2.1,1.1
		c-0.6,0.7-2.2,2.3-2.2,2.3l-3.3,1.7c0,0-2.6-0.4-2.6-0.3c0,0.1-0.1,1.7-0.1,1.7l-3-0.7l-6.5,6.8l-5,3.7l-2.8,0l-2.1,2.8l-11.3,6.9
		L357,254l2.7,4.5l-5.6,4.2l-3-2.2l-4.7-0.8l-3.7-5.7l-1.1,0.4l3.6,6.4l5.7,1.3l5.5,3.9c0,0,4.8-1.5,4.9-1.5c0,0,0.8,2.7,0.8,2.7
		l3.2-2.5l1.9,0.6l-3.5,5.8l-5.4,5.6l-2.1-0.1l-0.9-1.4l1.6-2.7l-5.1,1.6L349,276l-1.8-1.5l-5.6,2.8l-3.9,2.5l-1.8,4l9.6-6.7
		l7.2,0.1l2.6,1.3l-2,1.9l-3.5,2.9l0.1,2.1l-2.9,0.2l-0.9,1.7l-3.1-0.5l0.6,2.4l-1.5,1.6l-1.9-1.3l-4.6,0.1l5.8,2.3l4.1,0.6l6.6-4.9
		l-0.1-2.4l2.7-1.1l1.3,1.3c0,0,9.8-1,9.8-1c0.1,0,4-2.8,4-2.8l3.9,3.6l5.2-5l3.8-0.3l4-0.8l9.2,6l4.2,1.5l1.4-1.2l2.3,0.8l1.6-2.4
		l2.6,0.2l1.2,2.3l1.7-0.7c0,0,3.8,1.5,3.9,1.5c0,0,0.5,0.8,0.5,0.8l1.7-0.9l4.1,1.4l1,1.7l8.8,0.7l2.1-1.3l2.6,1.9l3.3-0.2l2-1.9
		l5.4,1.5l6.5,10.8l1.1,7.2L452.4,310.5z"/>
	
	<polygon points="215.7,456.8 213.9,461 210.5,456 	"/>
	<polygon points="301.5,240.4 302,241.6 300.7,241.9 300.2,240.3 	"/>
	<path d="M299.5,239.2l-0.1-1.8c0,0-2.6-0.1-2.6-0.1c0,0,0.5,1.5,0.5,1.5L299.5,239.2z"/>
	<polygon points="310.4,219.5 309.8,218.8 308.4,218 309,217.4 309.1,217 311.1,218.3 	"/>
	<g>
		<polygon points="281.2,434.3 279.8,434.5 279.9,432.7 281.7,432.7 		"/>
		<polygon points="282.6,431.8 281.4,431.8 281.1,430.4 282.3,428.5 284.1,430.1 		"/>
		<polygon points="268.9,443.6 269.9,435.5 267.4,433.1 267.4,432 264.4,430.8 263.4,431.9 260.1,433.2 259.9,435 
			258.2,436.4 258.2,441.3 259.2,442.9 258.4,444.8 258.4,447.7 259.2,448.2 259.3,449.6 260.9,453.5 264,455.2 269.7,455.2 
			269.5,452.6 270.9,450.7 270.5,447.9 271.8,446.3 271.2,444.5 		"/>
	</g>
	<g>
		<polygon points="271.3,424.6 272.5,427 271.2,426.9 		"/>
		<path d="M273.9,420.7l-0.6,5.8l0.8,0.9l1.4,0.1l-0.4,2.1l1.1,2.2l1.6,1.2l0.6-1.6l-1.5-0.8c0,0,1.9-4.8,2-4.8
			c0.1,0-0.1-3.5-0.1-3.5l-1.6,0.3l-0.7-1.5l0.7-1.7l-2.1-1.9l-0.9-2l-1.4-0.7l-1.7,1.5l0.1,1.4l0.4,0.4l0.7,2.9L273.9,420.7z"/>
		<polygon points="241.3,434.6 241.1,433.4 240.2,434.4 		"/>
		<polygon points="240.8,432.6 243.1,431.4 244.2,429.5 243.2,428.5 245,426.1 243.3,425.7 242.6,427.2 241.6,428.4 
			241.6,430.3 240.8,431.3 		"/>
		<path d="M216.7,414.6l-2.4,2l-0.3,1.9l-2,2.2l-3.6,2h-1.8l-0.2-1.4l2.1-3.4l0.5-1.4l1.4-0.9l0.2-1.2l-0.7-1.1l2.3-4.9
			l3.7,0.2l2.5-1l-0.3,4.8l7.6-7.3l3.4,1.1l-1,1.4l0.8,5l-0.7,0.6l-0.1,4.4l1,4.7l0.6,0.9l-0.7,1.2l0.7,0.9l0.2,1.5l-2.1,1.4
			l-1.3-1.2l-0.1,1.7l-2.4,1.3l-2.9,0.2l-0.1-1l-1.9,0.2l-1,2.2l-2.3,1.4l-1.2-1l-1.2-0.1v-1.1l2.3-2.7l-0.1-1.7l1.2,0.1l0.8-4.9
			c0,0-2.4-0.6-2.3-0.7c0.1-0.1,1.1-1.5,1.1-1.5l3-1.7L216.7,414.6z"/>
		<path d="M236.1,416.2l-2.7,2.6v-1.2l-2.6-0.7l-1.7-1.8L229,413l0.8-1.1l-0.5-1.5l0.6-0.7l0.2-1.6l2.1-2
			c0,0,4.5-1.7,4.5-1.6c0,0.1,1.2,0.8,1.2,0.8l1-0.6l1.9-0.1l0.3-1.2l-1.1-0.5l-1.9,1.1l-2.7-2l3.1-2.8l0.7-1.5l1.6,0.2l1.2-1.7
			l6.1-2.3l1.9-2.3l0.6,0.6l1-1.1l1.7,0.1l0.2,2.3l-1.5,0.9l-1,1.8l-1.6,0.3l-0.2,1.7l-2.4,3.3l-1.1,0.2l-1.5,1.8c0,0,0,1.3,0,1.3
			c-0.1,0-1.3,0-1.3,0l-2.3,6c0,0-1-0.6-1-0.4c0,0.2-0.3,1.5-0.3,1.5l-1.3-0.1l-2.2,2.8L236.1,416.2z"/>
		<polygon points="226.7,396.7 224.9,398.6 225.4,396.7 		"/>
		<polygon points="228.3,396 226.6,395.8 224.3,395.1 224.6,393.6 231.6,388.1 231.7,390.2 228.1,393.9 		"/>
		<polygon points="252.7,387.9 254,386.8 255.1,387.2 254.9,389.3 253.9,389.3 252.5,390 251.1,389 251.5,387.7 		"/>
		<polygon points="252.4,382.9 250.4,382.9 251.3,381.6 252.7,381.6 		"/>
		<polygon points="267.3,364.4 270.9,360.6 272.4,360.2 272.4,358.8 270.8,359.1 270.4,360.2 265.9,363.4 264.5,363.5 
			263.5,365.6 264.4,366.3 266.1,364.3 		"/>
	</g>
	<g>
		<path d="M222.8,370.7c0-0.1-0.8-1.6-0.8-1.6l-1,1.3L222.8,370.7z"/>
		<path d="M223.2,373.3l0.6-1.1l1.2-0.1l0.1-2.2c0,0,0.6-1.4,0.8-1.3c0.2,0.1,2.4,0.3,2.4,0.3l0.4,1.8l2.2,1.4v-1.8
			l4.9,1.2l2.2,0.1l0.8-1l2.8-0.1l1.9-1.8l-0.3-1.2l-1.9,1.2l-1.4-0.5l-3.6,1.2l-2.9-1.7l6.8-4.5l2.8-2l2-0.2l0.2-1.6l-2.7-0.5
			c0,0-1,1.3-1.1,1.3c-0.1,0-3.3-1.6-3.3-1.6l-0.1-2.2l-1.5-0.2l-0.7-1.9l-5.2-0.6l0.1-1.8l2.4-1.7c0,0,0.2-0.9,0.1-0.9
			c-0.1,0-1.1-0.3-1.1-0.3l-0.1-2.1l2.1,0.7l1.1-0.9l0.8,1.9l1.5-0.1l0.1-2.3l0.8-1.5l4.2,0.2l2.2,2.5l-1.1,0.7l0.8,1.2l1.1,0
			l1.6,3.9l0.3,4.5l11.8,7.5l0.9,3.7l-1.2,0.5l0,1.8l-2.7-0.2l0.6-1.9c0,0-1.3-1.3-1.3-1.2c0,0.1-0.1,2.3-0.1,2.3s-1.1-0.2-1.1-0.1
			c0,0.1-0.7,1.9-0.7,1.9l1.5,0.2l0.9,1.3l-7.2,2.7l-1.3-0.9l0.4-3.6l-3.3,2.9l-2.1-0.4l-3,1.8l-1.3-0.1l0.2-1.4l-2.9,0.5l-1.1,1.1
			l-2.1-1.9l-1,0.8l-0.6-0.8c0,0-1.5,2.1-1.6,2.1c-0.1,0.1-3-0.9-3-0.9l0.8-0.8l-0.8-0.9L225,374L223.2,373.3z"/>
		<path d="M234.6,359.1l0.3,1.3l3-0.4l-4.4-3.3c0,0-2.6,1-2.6,1c0.1,0,1.5,0.3,1.5,0.3s0.3,1.4,0.3,1.4
			C232.8,359.4,234.6,359.1,234.6,359.1z"/>
		<polygon points="203.8,352.3 202.9,355.2 201.2,355.2 201.5,353.7 199.2,353.5 199.8,348.4 200.6,347.8 205.2,347.8 
			212.4,349.2 211.8,350.4 210.2,349.6 207.9,351.7 		"/>
		<polygon points="217.3,345.8 219,346.6 220.6,345.8 224.1,344.6 227.1,338.3 225.5,338.3 220.6,341.6 218.7,341.3 
			218.2,343.4 216.3,344.3 214.3,344.7 213.8,345.8 214.8,346.8 		"/>
		<polygon points="241.5,328.5 241.1,329.6 239.9,329.7 239.1,328.5 		"/>
		<polygon points="245.9,326.8 243.2,323.5 245.6,321.8 246.9,325.6 		"/>
		<polygon points="228.3,307.6 232.1,308.1 233,307.7 231.7,306.4 		"/>
		<polygon points="235.8,315.2 234.5,314.6 234,312.3 237.1,310.9 238,309.7 240.6,309.1 243.2,312.9 242.1,313.5 
			243.2,315.2 242.4,317.5 240.4,318.5 239.8,319.3 237.7,319.1 236.3,317.6 		"/>
		<path d="M235.5,279.3l0.2,2.3l-0.5,2.3h-1.6l-5.6-5.2l0.1-1.7l-1.8-1.4l-0.2-1.4l1.4-1.1l0.6-1.8l1.4,1.2
			c0,0,2-4.9,2-4.8c0,0.1,1.3,3.7,1.6,5.9l2.8,0.7l-1.1-2l1.4-3.1l1-0.7v-2.1l-2.6-0.8l0.2-1.2l1.4-0.7L236,262l1.1-1.6l1.2,0.7
			l1.9,3.6v3.1l1.9,1.2l-0.1,1.8l1.2,0.1l1-1.4l0.2,1.8l1.5-1.4l2,4.3l0.8-0.7l-0.1-1.4l-1-1.4l0.3-1.1l-1.1-1.5l-0.3-1.8l1.7-1.7
			l-1.4,0.1l1.3-2.4l-0.9-0.6l0.9-3.5l2.7-1l0.3-2.1l0.8,0.6l1.3-0.4l2.1,2.5l3.4,8.2v4.8l-2.1,3.5l-1.6,6.4l-1.3-0.3l-0.8,1.2
			l1.2,0.1l1.6,2.9l-0.6,2.6l0.5,2.1l-1.8,0.5l3.2,1.8l-0.3,1.8l1.5-0.2l1.5,1l0.3-1.3l-0.7-1.3l1.8-0.9l1.4,0.8l0.8,2.5l-1.5,0.7
			l-1.5,0.4l3.7,3.2l8.1-0.8l2.9,1.9l-4.7,5.2l-3.6-0.4l0.6,1.7l-2.5,3.6l-1.6,0.2l-0.2,1.7l-3.9,1.8l-1.6,1.9l-3.5-0.7l0.2-3.1
			l1.6-0.7l-0.5-1.6l1.3-0.3v-1.7l1.2-0.8l1.5,0.1l0.2-1.2l1.7-0.2l0-1.5l-2.9-0.1l0-3.1c0,0-1.2-0.4-1.2-0.4c0,0.1-3.3,5.9-3.3,5.9
			l-1.5,0.1l-0.6-1.2l1.2-1.7c0,0-0.9-1.4-0.8-1.3c0.1,0,0.3-1.3,0.3-1.3l-1.1-1l-1.7,1.6l-1-0.8l-2.6,1l-3.6,0.2l1.6-3.3l-2.1,0.3
			l-1-2.1l1.1-1.9l-1.5,0.2l-0.1-1.7l-1.6-1.3l-0.2-3.3l3-2.7l2.8,2.7l0.7-0.8l-2.3-2l-0.4-1.5l-2,0.1l-1.4-1.3l1-0.3l0.5-1.8
			l-1-0.6c0,0-1.8,1.6-1.8,1.5c0-0.1-0.3-2.2-0.3-2.2L235.5,279.3z"/>
		<polygon points="245.9,304.3 247.2,303.4 248,303.2 247.5,301.3 245.9,302.7 		"/>
		<polygon points="259.1,289.4 261.2,279.9 262.4,279.6 263.5,276.5 262,276.8 261.2,278.9 260,278.3 258.8,280.5 
			257.9,280.8 258.1,284.5 257.2,286 257.6,288.9 		"/>
		<polygon points="265.2,274.2 265.2,272.1 266.6,271.2 266.6,269.8 264.8,270.9 263.9,272.3 264.2,274.2 		"/>
		<polygon points="185.2,308.3 182.5,306.1 183.5,310.3 		"/>
		<path d="M186.8,307.1l-3.4-1.6c0,0,3.8-3.8,8.6-5.8L186.8,307.1z"/>
		<polygon points="192.2,257.4 191.5,259.3 189.4,257.2 		"/>
		<polygon points="215.3,247.5 216.7,243.9 212.7,246.1 213.9,247.1 		"/>
		<polygon points="199.6,297 193.7,294.7 193.9,288.9 196.6,279.5 197,270.3 201.1,269.6 199.7,264.8 203.7,263 
			201,255.8 196.4,252.2 199.9,248.4 208.7,249.5 213.5,248.1 218.8,253.7 216.9,255.6 213.7,253.1 212.1,253.2 215.7,257.9 
			211,265.7 206.3,264.5 207.2,266.6 207.6,271.1 204,271.1 205.7,277 199.3,285.8 201.3,290.8 		"/>
		<path d="M225.8,234l1.2-2.6c0,0-1-0.5-1-0.5c-0.1,0-3.5,1.6-3.5,1.6L225.8,234z"/>
		<path d="M219.6,236.7l4.3,10l7.5-4l1.3-1.5l4.1,0.5l-0.7-6.5l4.2,2.1l-0.9-7.4l0.9-3c0,0,1.2,6.3,1.4,7.8l8.4-0.3
			c0,0,5.1-5,7.3-6.1l-0.2-6.5l-4.4,0.3l-5.2-1.3l2.2-0.7l6-0.5l3.3-1l-0.2-5.9l2.7,1.6l1.9-0.8l3.7,2l4.4-5.5l-5.7,2.6l-3.4,0.1
			l0-2.2l2.6-2l4.6-6.6l0.9-4.8l2.3-2.3v-2.4l-2.2-4.2l-1.1,1.8l-9.6,4.2l-5.7,3.9c0,0-10.2,2.2-12.9,4.1l2.5,7.4l-1.5,0.4l-3.3-7.3
			l0.4,6.1l-3.6,0.5l-0.7-1.5l1.9-1.2l-5.3-2.7l-3.8,7.4l-2.1,2.1l1.8,6.6l5-0.3l0.5,1.2l-8.3,2.1v3l4.2,3.9l5.2,2.6l0,1.8l-5.8-0.4
			l-5.5,3.8l-1.7-1.4L219.6,236.7z"/>
	</g>
	<g>
		<g>
			<path d="M406.7,191.6l-2.4-2.4l-1.6-3l-2.5-4.3l2.5-3.3l1.7-0.5c0,0,2,3,2.1,3.1c0.1,0.1,3.4,3.1,3.4,3.1l0.5,4.8
				l0.9,1.2l-2.8,1.6l0-1.8L406.7,191.6z"/>
			<polygon points="413.6,189.9 415.1,187.2 412.3,187.9 			"/>
			<polygon points="422.6,188.8 420.2,187.2 422.2,185.9 			"/>
			<polygon points="421.1,188.8 417.2,189 418.7,193.4 416.8,196.6 418.9,198 420.7,195.5 			"/>
			<path d="M429.7,181.6l2.8-2.6l-0.9,4.9h-4.1l-1.2,2.7l-3.7-2.8l-2.3-5.1l-6.7,1.3l-3,0c0,0-1.5-3.6-1.5-4.9l-1.6,1.9
				l-1.7-0.5l-0.7-5.4l2.7-10.7l5.3,0.2l0.2,3l6.9,1.7l1.6,4.3l-4,1.5c0,0-1.5,2.9-1.5,2.9c0.1,0,4.8,0.5,4.8,0.5l0.2,1.8l2.3-1.6
				l-0.1,2.7l1.2,1.4l4.5-2.8l-0.8,5.1L429.7,181.6z"/>
			<path d="M427.7,175c0,0,1-2.8,2-3.6l-0.1-2.2l-5.3,3.3C424.4,172.4,426.6,175.1,427.7,175z"/>
			<path d="M439.2,171.8c0,0,1.3-2.8,1.4-2.8c0.1,0,2.2-0.9,2.2-0.9l-3.5-3.8l-3.6,6.1L439.2,171.8z"/>
			<path d="M422.7,163.8c0,0-4.5-2.8-4.4-2.9c0,0,1.5-3.5,1.5-3.5l5,4.3L422.7,163.8z"/>
			<path d="M427.5,155l0.1-4.1c0,0-4.4,0.3-4.3,0.2c0.1-0.1,0.4-3.6,0.4-3.6l4.5-2.3l1,1.6l0.2,8.2H427.5z"/>
			<polygon points="436.9,160.9 442.5,157 444.8,157 448,153.5 443.7,153.8 441.7,153.3 438.6,156.9 			"/>
		</g>
		<g>
			<g>
				<polygon points="514.9,150.3 516.8,142.1 516.2,138.3 520.2,138.3 519.8,132.5 523.4,125.8 521.4,115.6 
					522.2,113.2 523.8,117.4 527.3,115.7 531.2,103 523.5,103 529.7,98.9 533.8,93.7 532.5,85.9 536.1,84.2 536.7,77.2 532.6,76.7 
					532.1,82.7 527.6,85.9 524.9,83.3 518.6,84.9 514.9,90.3 511.8,87.3 508.2,94.1 515.1,96.5 516.8,102.6 513.2,102.9 
					515.2,105.3 520.4,106.1 517.1,108.6 512.5,108 510.3,110 510.6,106.9 506.7,109.3 502.4,107.9 502.8,113 510.6,116.4 
					507.9,119.1 510,122.8 514.1,117.5 515.9,121.1 518.5,118.7 518,127.5 511,144.5 512.2,145.1 				"/>
				<polygon points="526.1,127.7 529.7,125 528.2,122.8 524.8,122.8 				"/>
				<polygon points="533,109.9 537.3,106.1 532.2,108 				"/>
				<polygon points="543.9,91.4 546,86.8 539.9,85.9 539.6,89.8 				"/>
				<polygon points="541.5,81.8 548.2,71.3 543.8,69.3 539.2,79.9 				"/>
			</g>
			<path class="st1" d="M496.6,163.8c-0.1,0-2.8,1.6-2.8,1.6l-0.9-0.3v-2c0,0,1.5-1.4,1.7-1.4C494.8,161.8,496.6,163.8,496.6,163.8z
				"/>
			<polygon points="490.3,109.8 490.8,112.6 489.8,114.1 487.7,113.4 487.3,111 			"/>
			<polygon points="547.2,103.4 543.7,103.1 544,101.4 547.2,101.3 			"/>
			<path d="M509.1,101.9c0,0-4.3,1.1-4.4,0.9c-0.1-0.3-0.2-3.3,0-3.3c0.2,0,3.2,0.3,3.3,0.4
				C508.3,99.9,509.1,101.9,509.1,101.9z"/>
		</g>
	</g>
</g>

<g class="st2 county2">
  <path d="M235.8,531.3l-1.7-8.4l-0.1-3.5l0.7-0.7l-1.7-2.6l-2.8-0.7l-2.1,0.2l-3.3-1.9l-5,1.4l-0.7,1.1l-1.1-1.1
	l-1.6-0.6l0.8-2.5h1.9l4-2.6l2.2-0.3l2.7-1.2l1.1-1.8l-0.1-6.7l-3.2-0.6l-0.9-1.6v-1.2l-1.1-1.4l-4.1-8.3l0.9-6.9l-3.4-2.5l0-1.1
	l1.7-4.1l-3.5-8.4l-4.8,1.2l-1-1.2l-4.9-3l-7-1l-4.3,1.9l-5.2-0.3l-0.9,0.9l-6.1,0l-5.8-0.9l-3.7,5.5l-1.9,2l-5.2,0.2l-3-1h-1.9
	v-1.4l-3.5,0.8c0,0-0.7-1-0.8-1s-1.3,0.5-1.3,0.5l-2.9,2.7l-0.6,5l-2.6,0.2l-0.6,3.2l-0.3,1.9l-1.3,3.3h-1.3c0,0-0.7,0.9-0.7,0.9
	c-0.1,0-2.4,1.5-2.4,1.5l-2.1,2l-2.2,2.2l0-0.9l-4.7,0.1l-5.3,0.9l-1.6-2.6c0,0-4.1,1.6-4.2,1.6c-0.1,0-0.7,3.5-0.7,3.5s1,0.7,1,0.8
	c0,0.1,1.3,2.4,1.3,2.4l2-0.2l4.9,1.8l0,2.7l-5.2,0.8l-3.2,3.5l-7.5-2.6l-2.4,2.5l-3.5,1.6l-0.7,0.9l-3.4-0.8v0.9l2.1,4.1l2,5.8
	l2.6,3.1l0.7,2.6l2.3,0.7l1.1,1.1l-0.9,6.6l2.6,1.8l5.6,2.1l2.8,1.7l-0.1,1.9l3,2.2l1,1.2l1.7,0.7c0,0,2.1-0.9,2.7-1.1
	c0.6-0.3,1.6-0.5,1.6-0.5l-0.7,1.1l1.8,1.6l1.1,0.5l1.1,1l1-0.8l0.3-2l0.6-1.4v3.3l2.4-1.5l1.5-4.3l3.3-0.8l1.9,0l0-4.1l-1.8-2.5
	l2-3.4l1.6,0.8l3.3-2.4l1.5-1.9l2.7-1.6l3.5,2.9l1.5,2.1l-0.1,1.8l1,0.9l0.7,1.6l-1.6,3l-0.1,1.9l1.7,0.8l-0.1,3.4l3.4,4.8l0.8-0.9
	l1.7-0.7l1.7,2.6v2.5l-2.4,4v2.8l0.8,3.1l1.5-0.8l0.8-0.9l4.2,0.9l1.8-1.9l2.4,2.6l1.7-0.6l1.7-3.7l1.7,2.7l1.6-1.8l1.7,1.9h2.7
	l7.2,7.7l1.6-1.7h1.9l3.3-2.6l3.1-6.5l0.1-2.7l2.6-2.1l1.5-2.9c0,0.1-0.6,2.5-0.6,2.7c-0.1,0.2,7.5,3.3,7.5,3.3l2.2-2.4l5.1-3.4h1
	l-0.8-4.9l-0.8-1.9l-4.3,0.9l-0.8-0.8l2.5-2.3l1.7-3.6l-1.2-1.3l0-1.5l1.2-3.2l-1.7-1.4l-0.1-2.6l0.9-1l1.1,0.1l4,4l1,4.9l0.1,2.7
	l-0.9,1.6h-1l0.1,6.8l0.8,1.7l3.4-5l-0.2-3.7L235.8,531.3z M193.7,519.5l-2.1,3.5l-1.7-2.2l-2.8-1.2l-2.7,0.7l-2.6-1.4l1.2-4.5
	l4.6-4.4l3.5-6.5l0.5-3.2l1.6,1.9l0.8,3.1l3.7-1.2l3.9,0.4c0,0-4.3,7.4-4.3,7.5"/>
</g>

<g class="st0 county3">
  <path d="M464.1,562.9l-0.9,0.9l-3.3,5c-3-1.5-9-1.7-9-1.7l-0.7-0.9l-1.6,0l-2.3-0.8l-3.1,0l-0.7-1l-0.9,0.1l-1.4,1.6
	l-6,0.9v-2.6l-0.8,1v-1l-0.8,0l-0.9,1.6v-0.7l-1.8,0l-0.8,1.5c0,0-3.9-2.4-4.6-4.3c-0.7-1.9-5.4-2.9-5.4-2.9l-0.9-1.1l-0.5,0.9
	l-11.9,5.1h-0.5l-3.7-3.4l-3.5,0.8h-3.2l1-0.7l0.1-4.4l-0.9-1.7l-5-5.5l-0.1-3.6l1.8-0.7l-2.7-4.3l1.8-2.7l1.7-5.6l-3.5-4.3
	c0,0-7.4,1.1-7.4,1c-0.1,0-1.5-3.3-1.5-3.3l0-3.7l2.4-5.5l0.8-5.2l4.2-0.7l0.9-4.2c0,0-5-1.6-5-1.7c0-0.1-3.5-8.4-3.5-8.4l7.7-8.3
	l1.9-1l2.9-2.9h7V482l9.2-5.1l-5.9-14.9l2.5-1l2.5,1l1.7-2.5l4.4-3.8l3.6-3.2l2.2-2.9l0,0.1l1.7,3l-0.3,2.7l7.2,12.7l4.9,1.9
	l1.9,2.1l0.4,3.8l0.8,1.1l-1.1,1.4l1,3.6l-0.9,5.8l-1.1,2.6l2.3,5.4l-1.1,0.1l-0.2,5l0.6,2.7l1.5,0.3l0,3.1l-3,2.4l2,1.4l0.2,2.4
	l1.4,2.1l-0.3,3.2l1.7,1.6l-0.1,1.9l1.4,1.5l0.4,3.3l-0.5,2.4l-1.5,0.5l1.4,1.4l0,4.1l0.7,0.9l0.3,6.2l2.4,4.1l3.4,3l-1.5,0.8
	l0.6,1.4l-1.5,3.9l1.8,1l1.2-2.7l4.1,2.3l0.9,2.6l2.9,1.5l1.6-0.5l1.7,2.1L464.1,562.9z"/>
</g>

<g class="st2 county4">
  <path d="M388.5,567.8l-4.3,1.7l0.9,8.4l-7.5,1.7l-6,6.7l3.6,5.8l-0.1,2.7l5.1,0.7l3.2,6.8h2.6l1.8,2.4l-0.1,1.9l3.3,2.2
	l0,1.9l2.5,4l-0.9,1.7c0,0-2.5,1.2-3.5,1.7c-0.9,0.5-1.4,4.2-1.4,4.2l-2.8,1.6c1.4,1.5,1,4.1,1,4.1l1.5,0.8h3.6l0,5.2
	c0.8,0.5,2.5,3.1,2.5,3.1l1.2,2.7l1.3,1.6l-3.5,2.7l-0.7,3l-0.9,0.8v0.9l-2.5,0.9c0,0,0.8,0,0.9,0c0.1,0,0.1,1.6,0.1,1.6h0.8
	l-2.6,3.4l1,1.7v3.2l-0.9,4.6v4.7c0,0-1.5,1.6-1.5,1.6c-0.1,0-1.9,0.6-1.9,0.6l-2.4,0.3l-1.7-1.7l-0.8,2.5l-1.6,0.6l-3,3.1l-2,1.3
	h-3.4l-1.9,2l-2.2,4.7c-2,0.2-5.1,2.6-5.1,2.6l-2.5-1.8l-3.3,0.7l-1.6-2.1v-1.1l-1.1,0.1l-2.3-1.1l-1.6,0.9l-5.1-3.3l-0.8-4
	l-1.6-3.4c0,0,0.8-0.9,0.8-1c0-0.1-3.2-2.5-3.2-2.5l-0.9-2.4h2.5l1.7-1.9l-0.9-0.8l0.9-0.7l-0.9-0.8l-0.2,0.7l-3.9-4.8h-1.5l0.3-0.6
	l-2-1l0.2-2.4l0.6-1.2l-3.3-5.5l2.2-3.5l3-0.5l2.1-1.3l1,1.4l0.8,2.2l-0.1,2.5l2.6,5.2l2.8,2.2l4.3,0.2l6.5-3.5l-1.1-1h-3.3
	l-0.9,1.8l-2.8-0.1l-6.9-6.7l-0.5-4.6l-1.6-1.4l0-4.1l-1.1-1.7l1.2-5.8l4.3-4.5l2.4-2.7l1.1,1.6l1.9-4l1.6,1.7l1.7-1.9l-3.2-1.8
	l-1,1.1l-2.8-0.1l-0.4-1.8l-1.8-0.4l-0.2-2.4l0.8-0.8l-0.1-3.8l1.4-0.8l0-2.8l0.6-3.1l1.4-0.9l1.2,0.9l-0.5,2.2l1,1.1l-1,1.3
	l2.3,0.8l-0.4-4.9l2.9-2.3l1.8,0.3l2.2-4.4l-2.8-2.9l1.5-3.3l4.3-0.9c0,0,0.8-2,0.9-2c0.1,0,1.8-1.9,1.8-1.9l-2.9-1.7l-1.1-2.4
	l4.9-2.9v-2.4l-1.2-1.2l-3.9,5.1l-4.8,2.7l-1.7-2.4l0.3-3.7l1-3.2l-1.4-0.6l-1.2,3l-0.8,4l-6.3,6.4l-4.4-2.6l3.6-6.7l0-3.7l-2.5,1.3
	l0.1,2.2l-1.2,0.6l-2.3-0.1l-2.3-2.7l-0.5-2.6l-0.9-4.3l2.7-4.2l-3.6-3.2c0,0-0.8-3.7-1.5-5.2c-0.7-1.6-1.5-2.8-2.4-3.6
	c-0.9-0.8-2.3-2.1-2.4-3c-0.1-0.9,0-1.6,0-1.6l2-0.4l0.6-2.3l1.1,0.7l1.7-4.9l-0.3-3.5l2.1-0.6l-0.1-1.9l6.6-6.3l2.3-6.9l3.3-3
	l7.4,0.6l0.9-1.1l-5.4-1.3l1-2.3l8.3,3.6l5.1,0.1l0-1.2l-5.4-0.6l2.4-1.4l2.9,0.2l-1.1-2.2l-0.7,0l1.7-5.8l6.6-0.7l4.4-3.1l8.1-4.5
	c0,0,3.5,8.4,3.5,8.4c0,0,5,1.7,5,1.7l-0.9,4.2l-4.2,0.7l-0.8,5.2l-2.4,5.5l0,3.7c0,0,1.5,3.3,1.5,3.3c0.1,0,7.4-1,7.4-1l3.5,4.3
	l-1.7,5.6l-1.8,2.7l2.7,4.3l-1.8,0.7l0.1,3.6l5,5.5l0.9,1.7l-0.1,4.4l-1,0.7c0,0-5.7,0.8-5.8,0.8
	C389.1,562.8,388.5,567.8,388.5,567.8z"/>
</g>

<g class="st1 county5">
  <path d="M500.6,650l-1.4,1.7c0,0-1.7-0.1-1.7-0.2c0-0.1,1.3-3,1.3-3l-5.6-3.6l-1.5,1.6l-0.9,0.1l-3.8-2.2l-5-8l-3.2-1.7
	c0,0-2.4,1-4.8,1.1c-2.4,0.1-6.5,0.4-6.5,0.4l-2.9-1.7l-3,0.1l-3,1.2v1.5l3.9-1.5l3.8,4.1l4.7-2l2.6,1.3l3.3-1l3.2,1.8l2.5,5.1
	c0,0,3.6,4.1,3.7,4.1c0.1,0,4.7,3.1,4.7,3.1l-0.3,1.7l2,1.7l-3.4,0.9l-0.9-1l-1.5,6l-2.7,0.8l-2.5-4.2l-0.9-4.2l1.7-3.1l-5-4.3
	l-3.5,4.1l-3.1-1.7l-4.3,1.7l4.3,2.4l-4.2,1.7l1,2.5l-4,1l-4.6-0.9l1-2.6l-5.9-3.4c-0.2,0.8-3.3,5-3.3,5l-5.9-0.7l-0.9-4.2l-4.9,5.9
	l-4.4,0c-0.7,1-2.3,4-2.3,4l-1.7,1.8l0.8,0.9l-0.7,0.9h-1.1l-0.6,0.8l-3.4,0.9l-2.4-2.6l-1.1,0l-0.8,1l-2.3-1.1l0.1-1.6l-2.8,0
	l-1.6,1.9l0.1-1.2l-2.7,1.1l-2.4-1.8l-0.9,1l-3.4-5.1l1-1.7l-5.8-9c-0.2-1.8-0.9-3.5-0.9-3.5l-4.1-2.4l-1.3-1.6l-1.2-2.7
	c0,0-1.7-2.5-2.5-3.1l0-5.2h-3.6l-1.5-0.8c0,0,0.3-2.6-1-4.1l2.8-1.6c0,0,0.5-3.7,1.4-4.2c0.9-0.5,3.5-1.7,3.5-1.7l0.9-1.7l-2.5-4
	l0-1.9l-3.3-2.2l0.1-1.9l-1.8-2.4h-2.6l-3.2-6.8l-5.1-0.7l0.1-2.7l-3.6-5.8l6-6.7l7.5-1.7l-0.9-8.4l4.3-1.7c0,0,0.6-4.9,0.7-4.9
	c0.1,0,5.8-0.8,5.8-0.8h3.2l3.5-0.8l3.7,3.4h0.5l11.9-5.1l0.5-0.9l0.9,1.1c0,0,4.7,1,5.4,2.9c0.7,1.9,4.6,4.3,4.6,4.3l0.8-1.5l1.8,0
	v0.7l0.9-1.6l0.8,0v1l0.8-1v2.6l6-0.9l1.4-1.6l0.9-0.1l0.7,1l3.1,0l2.3,0.8l1.6,0l0.7,0.9c0,0,6,0.2,9,1.7l3.3-5l4.4,2.3l-0.7,1.2
	l2.2,0.5l5.5,5.4l1.6,5.2l1.2,3.9l1.8,3.7l0.9,4.6l4,3.8l0.9,4.3l2.4,2.5l2.1-0.2l1.1,1.9l1.8-0.2l0.3,1.8l-5.9,4.2l0.3,9.8l1,1.1
	l-0.9,3.5l7.9,14.2L495,639l1.6,1.2L500.6,650z"/>
</g>

<g class="st0 county6">
  <path d="M489.3,705.7c0,0-3.3-2.3-3.4-2.3c0,0.1,1.4,3.7,1.4,3.7s-4.5,2.2-4.5,2.3c0.1,0.1,0.2,1.2,0.2,1.2l2.6-0.4
	l6.2,1.1l3.2,3.6l0.1,1.7l2.1,1.7l-1.4,3l-4.5,1.6l-3.8,0.8l-2.4,3.4l-5,0.9l0.2-1h-2.7l-2.5,1.9l-3.2-2.7h-1.1l-1.6,1.8l-2.4-2.7
	l-2.5,0.9h-5.2l-1.4,0.9h-0.9l0.9,1.6l-1.8,2.6l1.7,1.7l2.6-0.2l0.5,2.9l2,3.9v3.3h-1.1l-2.3,4.2h-1.1l-4.8,3.3l0.7,1.5
	c0,0,1,1.1,1,1.1c0-0.1,0,0.9,0,0.9l-3.5,0.7l0.9,0.3l-3.4,3.7v1.2l-2.5-2.7l-2.4,0.9l0.9,2.6l-1.9,3.3l-2.5,0l-3.1,0.8l-1.7,1.7
	l-1-0.1c0,0-0.1,1-0.1,1c0,0-3.1,0.7-3.1,0.7l-0.1,2.7l1.7,2.5l-2.7,1.5v0.9l-1.6,0.9l-1.6-4.4l-4.3-0.8l0.1,0.9l-6.7,1.6l-0.1,1.8
	l0.9-0.1l-4.2,3.4l0.1-0.9l-4.2-0.7l0.1-5.1l-0.9,0.1l0-1.1l0.9-2.2l-1-1.1l3.3-0.7l-3.2-5.9l0.7-1.8h2.7l2.2-4.9l1.9-0.7l0.9-4.2
	l-2.6-1.6l0-0.9h3.4l0.7-0.8h1v-0.8l-1.7-2.5c0,0-0.1-1.2-0.3-1.7c-0.2-0.5-0.5-2.5-0.5-2.5c-0.7-0.4-2.5-3.1-2.8-4
	c-0.4-0.9-3.6-3.5-4.4-3.9c-0.8-0.5-3-3-3-3l-1.1-0.4l-2.1-2l-1.6-4.3l1.5-3.2c-1.3-0.8-1.7-3.3-1.7-3.3L398,712l-2.2-0.5l2.5-3.4
	l1.3-0.7l1.2-0.1l0.9,0.8l0-0.8l0.9-0.9l-1-1.7l1.8-0.7l-3.2-3.3h-2l-2.4-0.9l0.1-0.7l-4.1-1.8l-0.9-1.5l-0.1-2.8l1.8-0.6l0.9-2.6
	c1.2-0.4,3.3-2.4,3.3-2.4v-2.6l-0.9-0.7l0.1-7.9l-0.9-2.9l-2.6-2.6l-5-1.7v-4.7l0.9-4.6v-3.2l-1-1.7l2.6-3.4h-0.8c0,0,0-1.6-0.1-1.6
	c-0.1,0-0.9,0-0.9,0l2.5-0.9v-0.9l0.9-0.8l0.7-3l3.5-2.7l4.1,2.4c0,0,0.7,1.7,0.9,3.5l5.8,9l-1,1.7l3.4,5.1l0.9-1l2.4,1.8l2.7-1.1
	l-0.1,1.2l1.6-1.9l2.8,0l-0.1,1.6l2.3,1.1l0.8-1l1.1,0l2.4,2.6l3.4-0.9l0.6-0.8h1.1l0.7-0.9l-0.8-0.9l1.7-1.8c0,0,1.5-3,2.3-4l4.4,0
	l4.9-5.9l0.9,4.2l5.9,0.7c0,0,3.1-4.1,3.3-5l5.9,3.4l-1,2.6l4.6,0.9l4-1l-1-2.5l4.2-1.7l-4.3-2.4l4.3-1.7l3.1,1.7l3.5-4.1l5,4.3
	l-1.7,3.1l0.9,4.2l2.5,4.2l2.7-0.8l1.5-6l0.9,1l3.4-0.9l0.7,0.5l3.3,3.8l3.1,6.3l3,3.7l3.4,14.9l-1.7,6.4l0.1,3.1l-10.9,5.5
	L489.3,705.7z"/>
</g>

<g class="st1 county7">
  <path d="M419.3,745.6v0.8h-1l-0.7,0.8h-3.4l0,0.9l2.6,1.6l-0.9,4.2l-1.9,0.7l-2.2,4.9h-2.7l-0.7,1.8l-1,0.8l-1.6,4.1
	H400c0,0-0.7,1.8-1.7,2.6l-0.9,3.2l-5.5-1.6h-2.8l-1-1.5l-1.1-3.3l-1.3-1.1l-0.7-1.6l-0.9,0.8l-2.9,1.6l-2,0l1.7,4.3l-0.9,1.6
	l-3.4-4.1l-5.1,1.7l-1.3,0.9l-1,0l-2.4-1l-1.7,0.9l-0.9-0.9l1.5-2.4l-2.4-0.9l-0.7,2.1l0.9,2.3h-1.4l-4.5,1.6l-1.8-0.1
	c-0.3-0.7-1.5-5-1.5-5l-2.7-0.1v1l-0.9,0.8l-1.8-1.8l-0.7-1.7l-2.4,5.2l0.9,1.4c-0.2,2.2,1.1,5.3,1.1,5.3l-2.2-0.1
	c0,0-2.2,1.8-2.3,1.8c-0.1,0-3.3-0.1-3.3-0.1v1l-1.7-1l-2.4,2.6l-1.9-0.9l-0.6-1.7l-1.8,0.9l-4-6.5c0,0-5.1-1.6-5.1-1.7
	c0,0-5.9-6.8-5.9-6.8l0.2-5l-1.8-2.1v-1.4l1.8-3l-1.8-1.7l5.1-7.6l2.3-2.5l2.7,0.8l-1.6-2.5l0.7-3.4l3.4-1.6l-5.2-0.7l-7.4-10.1
	l4.2-2.5l8.4-2.5l0.9-1.8l-0.8-1.6l-6.9,2.5l0.9-1.7l-0.9-3.3l5-3.3l-0.9-0.7l2.5-1.5l1.7-5.2l2.6,0.1l-1.4-1.5l-3.8-5.3l-1.5,0.9
	l-1.7-1.7c1-1.7,1.9-7.8,1.9-7.8l1.2-0.4l2-2l1.7,0.1l2.4-0.9l0.1-0.9l2.5-1l0.1,1.1l5.1,2.5l2.3,4.2c1.1-1,4.3-1.8,4.3-1.8
	l-0.2-1.8l0.9-1v-2.2l1.6-0.9l2.3,1.1l1.1-0.1v1.1l1.6,2.1l3.3-0.7l2.5,1.8c0,0,3.1-2.4,5.1-2.6l2.2-4.7l1.9-2h3.4l2-1.3l3-3.1
	l1.6-0.6l0.8-2.5l1.7,1.7l2.4-0.3c0,0,1.8-0.6,1.9-0.6c0.1,0,1.5-1.6,1.5-1.6l5,1.7l2.6,2.6l0.9,2.9l-0.1,7.9l0.9,0.7v2.6
	c0,0-2.2,1.9-3.3,2.4l-0.9,2.6l-1.8,0.6l0.1,2.8l0.9,1.5l4.1,1.8l-0.1,0.7l2.4,0.9h2l3.2,3.3l-1.8,0.7l1,1.7l-0.9,0.9l0,0.8
	l-0.9-0.8l-1.2,0.1l-1.3,0.7l-2.5,3.4l2.2,0.5l3.6,2.6c0,0,0.4,2.5,1.7,3.3l-1.5,3.2l1.6,4.3l2.1,2l1.1,0.4c0,0,2.2,2.5,3,3
	c0.8,0.5,4,3,4.4,3.9c0.4,0.9,2.1,3.6,2.8,4c0,0,0.2,2,0.5,2.5c0.2,0.5,0.3,1.7,0.3,1.7L419.3,745.6z"/>
</g>

<g class="st0 county8">
  <path d="M347.5,684.3l-0.9,1l0.2,1.8c0,0-3.3,0.7-4.3,1.8l-2.3-4.2l-5.1-2.5l-0.1-1.1l-2.5,1l-0.1,0.9l-2.4,0.9
    l-1.7-0.1l-2,2l-1.2,0.4c0,0-0.9,6.1-1.9,7.8l1.7,1.7l1.5-0.9l3.8,5.3l1.4,1.5l-2.6-0.1l-1.7,5.2l-2.5,1.5l0.9,0.7l-5,3.3l0.9,3.3
    l-0.9,1.7l6.9-2.5l0.8,1.6l-0.9,1.8l-8.4,2.5l-4.2,2.5l7.4,10.1l5.2,0.7l-3.4,1.6l-0.7,3.4l1.6,2.5l-2.7-0.8l-2.3,2.5l-5.1,7.6
    l1.8,1.7l-1.8,3v1.4l1.8,2.1l-0.2,5c0,0,5.9,6.8,5.9,6.8c0.1,0,5.1,1.7,5.1,1.7l4,6.5l1.8-0.9l0.6,1.7l1.9,0.9l-1.8,2.4l0.1,3.4
    l-1.7,1.6l-0.1,1.9l0.9,0.7h-0.9l-0.1,1.6l-0.8,0.8l0,1l0.9-0.1l-0.9,0.8l0,0.9h0.9l-0.2,0.7l-3.9,4.4l-4-0.2l-1.4,1.1l-9-0.4
    l-6.7,3.4l-1.6-1.3l-0.6,1.9l-3.5,0.3l-0.1,1.4l0.8,0.3l0.8,4.1l-4.7-0.1l-0.3,1.2l-6-1.2l-1.8-1.9l-1.9,1.5l-4.2-2.1l-3.7-3.8
    l-0.5-3.6l-1.7-1l-1.9,0.7l-1.1-2.5l-1.6-0.5l0.9-2.4l-2.8-3.7l1.1-1.3l-1.7-1.3l0-4.4l-2.1,2l-2.6,1.1l-0.1-2.5
    c0,0-0.2,1.6-1.1,1.7c-0.9,0.1-3,0.6-3.1,1.6c-0.1,1-0.1,1.1-0.1,1.1s-1.8,0.8-1.9,0.8c-0.1,0-3.4-0.2-3.4-0.2l-0.5-2l-2.5,2.1
    l-5-0.4l-2.4-2.1l0.7-1.8l-0.7-2.2l3.6-1.4c0,0,8.3-0.9,8.4-0.9c0.1,0,1.5,0.8,1.5,0.8l-0.4-1.6l1.6-1.9l-2.2-0.6l-0.3,1.8
    l-1.3,0.6c0,0-2-0.4-3-1c-1.1-0.6-2-1.2-2-1.2s-1.2,0.7-2.2,0.5l-4.2-4.5l1.9-0.6l-1.6-2.7l-0.8-2.7c0,0-3.8,0.6-3.8,0.6
    c0.1,0,0.8,2.2,0.8,2.2l-7.3-0.8l-5.5,0.2l-2,1l1.3,1.3c0,0-1.8,1.8-2.6,3.4c0,0-2.8-1-2.8-1c0,0.1,0,1.5,0,1.5l-3.1,0l-0.4-1.3
    h-2.8l-3,3.4l-2.1-1.6l-2.6,0.1l-2.5-2.4l1-2.5l-2-2.4l1-1.1l2,1c0,0,1.2-0.9,1.3-0.9c0.1,0,4.9,3.9,4.9,3.9l0.4-1.7l-1-1.2
    l1.6,0.2l0-0.9l-1.3-2.1l-1.2,1.4l-2.2,0.6l-0.3-1.3l-2.6,0.1l-0.8-0.8l0.5-2l-1,0.1l-0.5,1.3l-2.8,0.6v2.3l-1.7-0.2l0-2.2
    l-2.2-2.5l0.8-1.3c0,0,1,0.9,1.1,0.9c0.1-0.1,1-1.7,1-1.7s4.1-0.4,4.1-0.5c0-0.1,1.2-1.8,1.2-1.8l0.2-5.6l-3.8-1.1l-0.2-1.2H200
    l-1.3,0.7l0.2-3.5l2.6-1h3.4c0,0,1.1-1.8,1.1-1.8c0.1,0,2.3,0.1,2.3,0.1l0.5,0.8l1.5-1.6l2-0.4l0.7-3.7l1.4-1.1l2.9,1.6l1.3-0.2
    l-1.4,1.5c0,0,2.3,0.1,2.4,0.1c0.1,0,1.7-0.5,1.7-0.5l1-1.5l0.9,1.8l2.8,0.7l-0.3-2.2l2.6-1.1l1.9-0.4l1.5-3.1l2.3-0.2l1.2,0.8
    l0-1.8l2.3-0.5l2.6,1.1l2.1-0.6l0,1.4l3.6-0.7l1.2-1.9l4.5-3.3l3.5,0.4l7.6-3.3l2.3-3.3l3.2-2.3l2.2-5.6l1.2-4.4l2.3-3.7l5.9-2.7
    h-3.2l-4.2-1.5l0.6-2.5l1.1-1.6l-2.7-1l5.3-5.8l5-3l-5,0.7l-1.5-4l-2.2-3.6l2.1-3l-0.1-4.2l7.1-3l-5.9,0.2l-0.8,1.3l-5.8-0.8
    l-3.7-1.3l-0.3,1.8l-4.6-1l-2,2.5l-2.3,0.9l-1.1,2.8v1.5l-2.5,0.7l-0.2-2.4l-1.6-2.2l-2.7,2.3l-4.3-0.8l-1.2,1.3l-1.3-1.8l1.3-2.2
    h1.3l0.6-2.5c0,0,9.2-5.6,9.3-5.6c0.1,0,4,0.7,4,0.7l1.5-3.2c0,0,3.3-1.2,3.3-1.2c0.1,0,3.7-2.4,3.7-2.4l2.7-4.6l0.2-2.8l2.7-0.4
    l2.9-3l0.6-1.1l5.2-2.2c0,0,1.3,1,1.4,1c0.1,0,4.2-0.8,4.2-0.8l4.5-2l2.6-0.2c0,0,2.5,0.9,2.5,1.1c0,0.2-0.1,1.7-0.1,1.7l1.5-0.6
    l0-2.1l-1.9-1.6l-0.5-3c0,0,1.2-0.8,1.2-0.7c0,0.1,0.6,2.3,0.6,2.3c0.1,0,2.4-0.3,2.4-0.3l1.8,2.7l-0.5,1.2l13,0.7l0.8-2.1
    l2.7,0.3l2.8-1.2l7.9,5.5l0.2,2.6l5.3,4.5l0.7-1.3h1.5l3.9,4.8l0.2-0.7l0.9,0.8l-0.9,0.7l0.9,0.8l-1.7,1.9h-2.5l0.9,2.4
    c0,0,3.2,2.4,3.2,2.5c0,0-0.8,1-0.8,1l1.6,3.4l0.8,4l5.1,3.3V684.3z"/>
  <path d="M257.4,644.2c0,0,0.7-4.2,0.7-4.2c0.1,0,0.8-0.8,0.8-0.8l-0.9-1.1l-1.3,1.4l-0.7-2.1l-1.7-0.2l-0.9,3.3
    l1.8,0.1C255.3,640.6,256.4,643.6,257.4,644.2z"/>
  <path d="M261.6,632.9h-1.5l0.8-1.6l5.5,0.2l2.6-1l3.3,2l3.3,0.6l-1.5,4.1l2.4,0.7l1.1,1.7l-0.2,3.2l2.2,0.2l1.8-1
    l3.7,0.7l1.3,1.4l-4.3,4.1c0,0-2.6,0.2-2.7,0.2c0,0-1,1.5-1,1.5l-1.4,0.2l-1.9,1.6l-4.6,3.5l-2.6,1l-2.9-1.7l-1.3-3.1l-1.3,0.1
    l-1.8-1.8l1.1-0.9l0.4-3.6l-2.9-2.4v-2.2l2.3-1.1l-2-2.8L261.6,632.9z"/>
</g>

<g class="st2 county9">
  <path d="M570.3,756.4l-1.2,1.5l0.3,2.5l-2.9,6.5l-2.2,1.7l-2.9,8.9l-0.2,2l-2.2,5.6l-1,1.6l-4.5,1.5l-2.8,3l-0.3,1.3
		l-1.9,0.2l-2-9.6l-1.6,0.8l-1.2,1.7l1.8,1.2l1.9,6.6l-1,2.5l-3,1.6l-1.3-5.5l-4.6-2l-0.5,0l0.5,0.4l-0.2,0.6l3.5,2.2l0.8,2.6
		l-3.4-0.2l-2.6-1.7l-2.7,0.6l-2.6-0.1l1,1.9l9.5,0.3l1.1,1.2l-1.5,2.2l-2.5,1.3l0.7,2.8l3.2-1.3l0,1.4l-2.3,2.2l-2.8,1.7l-0.7,0.7
		l-5.2,1.5l-2.2-3l0.9-2.3l-1.7,0.5l-1.3-1.8l-1.9-1.4l-1.6,3.6l2.6,1.7l-2.5,1.3l-0.8-1.6l-2.5-0.1l-2,1.2l2.2,1.1l-4.6,1.9h-6.5
		l0.4,2l1.7,2.3l2.7,0.1l8-4.2l0.5,6.7l-1.3,2.2l-5.6,0.8l1,2.3l5.2-0.4l-5.5,4.6l0-1.9l0.5-1.2l-6.2-0.2l0.4,1.2l3.1,0.8l0.3,1.8
		l-2.6,1.1l-3.6-1.1l-3.7-0.5l-3.3-1.4l1.8,2.5l-0.2,1.5c0,0-1.8-0.6-1.8-0.6c0-0.1-0.5-2.7-0.5-2.7l-1.8,0.2l1.2,2l-4.3,0l-4.4,3.6
		c0,0-3.5-0.7-3.6-0.7c-0.1,0-1.1-1.8-1.1-1.8l-4-0.5l-0.3-1.1l2.5-3.2c0,0,0,1.8,0,1.8c0.1,0,1.5-1.7,1.5-1.7l1.8,0v-2.6l-1.9-2
		l-2.2-3.8l-5.2-0.1l-1.6,1l-1.6,0.1l-0.7-1.1l-1.1,0.2l-0.9-0.9l0.9-1l-2.5-1.5l0.8-0.8v-1.7l-0.7,0l-0.8-0.9l-1.7,0.2l-1.5-1.1
		h-3.6v0.9l-0.9,0.8h-1l-1.3,0.7h-1.7v1l-4.3-0.2l-0.7,1l-0.9-0.1l-0.8,1l-1.7,0l0.1-1l-2.7,0l-1.5-1.7l-0.1,1.4l-1,1.4l-0.7-0.2
		l0.1-3.3h-1.1l2.6-2.5l-0.7-0.9h-2.6l-0.7-0.8l-0.1-1.6l1-0.8l-1.7-0.8l-0.1-2.5h-0.7l-1.7-1.6l-0.1-1.2l-3.9-5.4l3.2-1.2l1.1,2.8
		l1.3,1.5l0.8-0.8l2.5,1.7l1.7-1.6l-0.7-2.7l-5.1-4.9l-0.9,0.9l0.1-1.8l0.8-0.6l0-1l1.7-2.2l0-2.9l1.7-3.1l-0.8-1
		c1.3-1.2,3.2-4.8,3.2-4.8c0,0,0.9-0.1,0.9-0.1l-0.8-5.8l-1.8-1.8l1.9-3.3l-0.9-2.6l2.4-0.9l2.5,2.7v-1.2l3.4-3.7l-0.9-0.3l3.5-0.7
		c0,0,0-0.9,0-0.9c0,0-1-1.1-1-1.1l-0.7-1.5l4.8-3.3h1.1l2.3-4.2h1.1v-3.3l-2-3.9l-0.5-2.9l-2.6,0.2l-1.7-1.7l1.8-2.6l-0.9-1.6h0.9
		l1.4-0.9h5.2l2.5-0.9l2.4,2.7l1.6-1.8h1.1l3.2,2.7l2.5-1.9h2.7l-0.2,1l5-0.9l2.4-3.4l3.8-0.8l4.5-1.6l1.4-3l5.1,1.5l5.3-5l1.5-6.2
		l3.3-2.6l14.1-0.2l5,3.3l6.3-0.2c0,0,6.8,2.8,6.9,2.8c0.1,0,3.9-0.7,3.9-0.7l4.2,2.7l8.3,7.8l3.4,5.4l1.4-0.5l2.9,4l1,4.2l1.4,1.1
		l-0.4,3.6l1.1,0.5l-0.2,2.1l-1,0.7l-0.2,3.6l-0.4,1.1l0.8,1.4v2.7l1.4,1.8l-2.6,1.3L570.3,756.4z"/>
</g>

<g class="st0 county10">
  <path d="M487.7,823.2v2.6l-1.8,0c0,0-1.5,1.7-1.5,1.7c0-0.1,0-1.8,0-1.8l-2.5,3.2l-0.6-2.1l-5.6-1.3
	c0,0-0.3,1.1-0.4,1.1c-0.1,0-2.2,0.4-2.2,0.4l0.5,0.6l2.5-0.2l0.3-0.9l3.5,1.2l0.9,1.4l-1,0.7l1.4,1.6l-0.2,1.2l-1.6-0.1v0.9
	l-0.7-0.1l-0.9,0.9l0.1,3.4l-1-1.1l0.1,3.6l-1,0.7H475l-1.6,4.2H471c0,0-2.5-3.2-2.5-3.2c0,0,0-1,0-1l-1.6-0.9l-0.8,1.8l-1.8-0.1
	l-0.7,1.7l-1.9,0.9l-1.6-0.9v-2.7l-0.8-0.5l0.1-1.2l-1.1,0.1l-1.5,0.9l0.2-1.5l0.7-1l-0.8-0.9l-1,0.1v-1l-1.6,0.1l0.1,1l-1.2,1
	l-0.2,1.1l-1.1,1l-1-0.8l0.5-0.8l0.1-0.6l1.2-1l0.1-1l0.9-0.7l-0.9-0.8l-1,0.1l0.1-0.9l-0.7-0.8l-1.9,0.1l0.1-1.9
	c0,0-0.9,0.1-0.9,0.1c0,0-0.7-0.9-0.7-0.9l-1,0.1l-0.8-0.8l0.1-1.7h-1l-1.6-0.8l0.9-2.4l1.1-1l-0.1-3.3h0.9l0-2.6L445,815l1-1.4
	l0.1-1.4l1.5,1.7l2.7,0l-0.1,1l1.7,0l0.8-1l0.9,0.1l0.7-1l4.3,0.2v-1h1.7l1.3-0.7h1l0.9-0.8v-0.9h3.6l1.5,1.1l1.7-0.2l0.8,0.9l0.7,0
	v1.7l-0.8,0.8l2.5,1.5l-0.9,1l0.9,0.9l1.1-0.2l0.7,1.1l1.6-0.1l1.6-1l5.2,0.1l2.2,3.8L487.7,823.2z"/>
</g>

<g class="st1 county11">
  <path d="M540.9,850.9l-2.6-1.2l0,3.1l2.2,0.2l1.1-0.6c0,0,0.3,4.9,0.2,6.3c-0.1,1.4-0.2,3.8-1.2,4.7
		c-1,0.9-4.2,3.1-4.2,3.1l-1.2,1.5l-4.7,0.4l-1.3,2l-6.2-0.2l-0.6,1.1l-4.7,2.1l0.2,1.8l-2.2,2.4l0.1,4.6l-6.3-1.4l-4.8-2.7
		l-1.7,2.9l-3.3,3.3l-4,1.3l-2.5-0.6l-1.4,1L487,886l-4,1l-2.6,1.4l-1.1,2.1l-5.9,1.9l-5.1-2.2l-1.1-1.8l-6.9-3.2l-5.7-2.1
		c0,0-1.5-0.4-1.6-0.4c0-0.1-1.3-0.8-1.3-0.8l-5.7,0.3l-2,1l-5.9,0l-2.1-1l-7.3,1l-4.7-0.4l-0.1,1.1l-1.6-1.1l-1.3,1.5l0,3.1
		l-2.9-1.7l-2.2-3v-2.3l2.3-0.8l-0.4-3.4l-1.9,0.8l-0.3,1.3l-1.2,0.2l0-2.7l-2.9,0.3l-2.5-0.7l-1.6,1.9l-0.2,2.6l-2.1,1.1l-1.3-1.3
		l-1.5,0.1l-0.8,1.2l-6.5-6.2l-1-3.5l-2-0.1c0,0-1.5-4.8-1.5-4.8c0,0.1-1.3,2.3-1.3,2.3l-3.5-2.7l0.2,1.5l7.2,8.2l-1.4,2.4l-8.9,1.5
		l-2.3-0.5l-0.1,1.9l-2.4,2.3l-4.1-3.6l-1.7,0.1l-0.1-0.9l1.1-0.8l-3.5,0.1l-1.5-1.7h-1.1c0,0-0.6-2.5-0.6-2.5
		c0.1,0,0.6-0.9,0.6-0.9h-0.8l0-0.9l1.6-1.6c-0.6-0.8-3.3-2.4-3.3-2.4l0.7-2.6l1.9-0.9c-0.1-1-1.4-3.5-3.3-4.4
		c-1.9-0.9-2.6-3.1-2.6-3.1c3.9-0.3,6.6-1.8,6.6-1.8l3.2,3.5h1.1l3.2,2.7h3.3l1.8-5.1l-1.7-1.6l0-5l-1-3.4h0.9l0.2-4.3l-1.7-1.4
		l0.8-1.9l6.6-2.6v1h1.8l3.4-6.7l-3.4-7.6l2.7-3.2l-1.8-2.5l0-3.4l-0.9-0.1l-1.5-5l-2.8-0.8l2.7-4l-0.7-5.3l1.6,0.9l-1.6-3.5
		l2.3-10.6l2.6-3.1c0,0,0-7.7,0-7.7c0,0.1,2.5,2.5,2.5,2.5l5-2.5l0.7-2.5l0.9-3.2c1.1-0.8,1.7-2.6,1.7-2.6h5.8l1.6-4.1l1-0.8
		l3.2,5.9l-3.3,0.7l1,1.1l-0.9,2.2l0,1.1l0.9-0.1l-0.1,5.1l4.2,0.7l-0.1,0.9l4.2-3.4l-0.9,0.1l0.1-1.8l6.7-1.6l-0.1-0.9l4.3,0.8
		l1.6,4.4l1.6-0.9v-0.9l2.7-1.5l-1.7-2.5l0.1-2.7c0,0,3-0.7,3.1-0.7c0,0,0.1-1,0.1-1l1,0.1l1.7-1.7l3.1-0.8l2.5,0l1.8,1.8l0.8,5.8
		c0,0-0.9,0.1-0.9,0.1c0,0-1.9,3.6-3.2,4.8l0.8,1l-1.7,3.1l0,2.9l-1.7,2.2l0,1l-0.8,0.6l-0.1,1.8l0.9-0.9l5.1,4.9l0.7,2.7l-1.7,1.6
		l-2.5-1.7l-0.8,0.8l-1.3-1.5l-1.1-2.8l-3.2,1.2l3.9,5.4l0.1,1.2l1.7,1.6h0.7l0.1,2.5l1.7,0.8l-1,0.8l0.1,1.6l0.7,0.8h2.6l0.7,0.9
		l-2.6,2.5h1.1l-0.1,3.3l0.7,0.2l1.2,2.3l0,2.6h-0.9l0.1,3.3l-1.1,1l-0.9,2.4l1.6,0.8h1l-0.1,1.7l0.8,0.8l1-0.1c0,0,0.6,0.9,0.7,0.9
		c0,0,0.9-0.1,0.9-0.1l-0.1,1.9l1.9-0.1l0.7,0.8l-0.1,0.9l1-0.1l0.9,0.8l-0.9,0.7l-0.1,1l-1.2,1l-0.1,0.6l-0.5,0.8l1,0.8l1.1-1
		l0.2-1.1l1.2-1l-0.1-1l1.6-0.1v1l1-0.1l0.8,0.9l-0.7,1l-0.2,1.5l1.5-0.9l1.1-0.1l-0.1,1.2l0.8,0.5v2.7l1.6,0.9l1.9-0.9l0.7-1.7
		l1.8,0.1l0.8-1.8l1.6,0.9c0,0,0,0.9,0,1c0,0,2.5,3.2,2.5,3.2h2.5l1.6-4.2h0.8l1-0.7l-0.1-3.6l1,1.1l-0.1-3.4l0.9-0.9l0.7,0.1v-0.9
		l1.6,0.1l0.2-1.2l1.2-0.6l1.9,1.7l1.7-0.7l2.7,2.6l5.3,0.3l0.6-1.7l7.4-0.7l5.4,3.2l-4.1,0.4l-6.3,1.7l-1.1,2.2l2.8-1l2.7,2.7l3,0
		l1.4-2.8h1.8l1,3.1l-0.4,1.9l2.4-0.4l1.8,2.1c0,0,3.1,1,3.1,1.1c0,0.1-0.2,0.8-0.2,0.8l5.1-1.5c0,0,3.1-0.4,3.1-0.4
		c0,0.1,2.3-1.2,2.3-1.2l9.4-0.7l0.5,1.7c0,0,3.8-0.6,3.9-0.6c0.1,0,3.1-0.8,3.1-0.8l2.4,1l0,4.1L540.9,850.9z"/>
	<path d="M377.8,887.4l2.5-0.6c0,0,1.9,0.5,1.9,0.5l7.3,7.3l0.5-0.7l0.8,2.3l1,0.2l6.5-1.4l0.9-3.2l-0.5-1.3l0.1-0.5
		l4.5,0l-1.6-4.4l0.2-1.8c0,0-5.1,0.6-5.1,0.5c0-0.1-0.9-0.9-0.9-0.9l0.5-1.8l-1.3-1.3l-0.8,1.5l0.1,2.7l-1.1,1.1l-0.4-0.9l0.5-2
		V880h-1.1l-1.4,2.1l-1.8,0.5l-1,1.9l-2.9-1.2l-3.5,1l-1-0.9L377.8,887.4z"/>
	<polygon points="413.2,880.6 410.7,880.7 408.5,879.8 411.6,877 	"/>
  <polygon class="st1 " points="513.9,843.2 509.9,840.8 508.6,837.7 509.5,835.8 512.1,836.4 512.4,838.2 519.5,843 	"/>
</g>

<g class="st2 county12">
  <path d="M397.4,772.3l-0.7,2.5l-5,2.5c0,0-2.5-2.4-2.5-2.5c0.1,0,0,7.7,0,7.7l-2.6,3.1l-2.3,10.6l1.6,3.5l-1.6-0.9
	l0.7,5.3l-2.7,4l2.8,0.8l1.5,5l0.9,0.1l0,3.4l1.8,2.5l-2.7,3.2l3.4,7.6l-3.4,6.7h-1.8v-1l-6.6,2.6l-0.8,1.9l1.7,1.4l-0.2,4.3h-0.9
	l1,3.4l0,5l1.7,1.6l-1.8,5.1h-3.3l-3.2-2.7h-1.1l-3.2-3.5c0,0-2.7,1.5-6.6,1.8c0,0,0.7,2.1,2.6,3.1c1.9,0.9,3.3,3.4,3.3,4.4
	l-1.9,0.9l-0.7,2.6c0,0,2.7,1.7,3.3,2.4l-1.6,1.6l0,0.9h0.8c0,0-0.6,0.9-0.6,0.9c0,0,0.6,2.5,0.6,2.5h1.1l1.5,1.7l3.5-0.1l-1.1,0.8
	l0.1,0.9l-4.2,0.3l0.8,1.5l-2.4-0.7l-1.2-1l-4-0.3l-1.1,1.3l-2.3,0.2l-1-2.1l-2-1.6l-2-0.1l0.2,1.6l-3.3,0.8l-0.7,1.4l8.7,2l0.4,2.9
	l-1.7,1.5l0,1.5l-1.2,1.3l-4.1-0.1l-0.5-1.4l-2.6-0.3l-1.9-2.1l-5.3-0.7l-5.4-1.8l-1.9-1.6l-2.6-0.1l-1.4,2.5l0.1,2l0.8,1.1l0.4,2.5
	l-1.4,0.9l-1.8-0.1l1.7-2.4l-0.6-2l-1.4-0.2l-1-2.2l-4.2-4.8l-3.1-2.5l-2.4-1.7l-2.6-2.6l-2.4-0.6l-3.7-1.8l-3.4,0.9l-7.4-0.4
	l-0.8,1l-8.7,0.1l-1.9,0.6v1.5l-1.3,1.2l-2.6,0l-0.4,1.7l-2.9-0.8l0.3-2.5l-1.2-1.3L278,870l-1.2-1.1l-0.2,2.3l0.4,4.5l0.9,0.4
	l-1.5,1.1l-0.2,1.5l-1.5,1.6l-4.8,0.3l0,1l2.1,0l0.8,4.6c0,0-1.5,0.7-2,1.4c-0.5,0.7-2.4,2.6-2.4,2.6l0.1,2.2l2.1,0.5l1.3,1.8
	l-1.7,0.5l-0.1,2.1l-1.9,0.7l-1.7-1.5l0.5,2.2l-2,0.4l-1.5-0.2l-2,3.1l-0.7,5l-1.8-0.7l-2.4,2l-2.4-3.6l-0.2,1.9l-1.9-0.1l-1.1-1.8
	l-1.7-1.4c0,0,1.5-4.2,1.6-4.3c0-0.1-4.4-0.7-4.4-0.7l-2.5-1.7l-2.6,0.4l-2.2-0.9l0.2-1.5l-2-0.1c0,0-0.7-2.1-0.7-2.2
	c0-0.1,0.4-1.5,0.4-1.5l-2.6-1.2l-0.4-2l-0.9-1.3l-1.6,0.7l-2.8-1l-0.9-1.1l-1.1,1.2l5.1,2.4l-0.7,1.1l1.6,1.2l1.6,0v1.1h-1.3v2.2
	l-2.5-0.5v-2.5l-2.8-2.4l-7.7-0.7l-2.5-2.1l-0.6,1.3l1.1,1.5l-0.5,1.8l-5.3-1.5l-3.1-0.1l-2.3,0.9l-0.2-3.5l-4.2,1.5l-0.1,2
	c0,0-1.5,0.8-1.5,0.9c0,0.2-0.8,2.3-0.8,2.3l0.9,1l-1.6,1.7l-4-1.3l-3.4,2.7l-3-0.1l-1.4,2.8l-2.2,0.8l0.8-5.7l-2.2-0.6l-1.2,0.8
	l1.3,1l-0.7,2.4l0.6,1.4l-1.3,0.3l-1.5,3.2l-2.5-0.9l0.1,1.3l2.8,1.4l1.2,3.2l-3.4,3.6l-3.3-0.8l-2.6,3.4l-2.3-1.3l-1-2.9l0.6-2.4
	l-0.9-4.3l-1.9-2.1l-2.3-0.1l-0.9-1.3l-2.7-0.6c0,0-0.8-1.7-0.8-1.8c0-0.1-2.8-1.3-2.8-1.3l-1.6,1.3l0.7,1.9l-1.5,2.3l-6.5,1.3
	l-1.1-2.1l-0.9-0.4V899c0,0,1.4-0.9,1.4-0.9l0.4-2.1l-1.2-0.8l3.2-2.7h3.4l2.3-2.4l3-1.2l1.7,0.3l0.6,2.3l2.6,0.8c0,0,3-4.4,3.2-4.4
	c0.1,0,3,0.9,3,0.9s2.3-2,2.4-2c0.1,0,2-0.7,2-0.7l1.9-2.4l3.3-0.6l3-4.2l-0.8-1.6l1.9-0.9l1.9,0.7l3.2-3.5l0.4-3.5l1.5-0.5v-3
	l1.2-0.8l0.3,1.1l3-1.3l1.2,1l0.2-3.2c0,0,2.8,0.8,2.9,0.8c0.1,0,1.9-1.5,1.9-1.5s1.1,2.3,1.2,2.3c0.1,0,2.9-2.2,3-2.3
	c0.1-0.1,0.6-3.9,0.7-3.9c0.1,0,2.9-1.3,2.9-1.3h1.7l2.8-2.3v-1.5l5.5-3.5l1.8-4.6c0,0-0.2-6,0-6c0.2-0.1,1.6-1,1.6-1s0.9-5.7,1-5.8
	c0.1-0.1,1.5-1.1,1.5-1.1l3.7,1.6l1.8-0.1l2.2,2.4l2.8-0.2l3.4-3.2c0,0,2-0.7,2.2-0.5c0.2,0.2,0.8,0.8,0.8,0.8l-1.3,2.9l1.3-0.5
	l2.2-4.2l5.6,0.2l-1.4-1.2h-5.6l-1.9-4l-0.1-2l1.5,0.5l1.4-4.1l4.7-0.3l3.3,1.2l1.1-1.2l6.7,0.6l1.8,1.2l0.6-1.3l5.6,0.3l1.9,1.2
	l7.9,1.6l0.2-1.1l4.6,1.5v1.5l2,0.7l0.7,2.4l6.9,1l1.2,1l2.6-1c0,0,9-0.2,9.2-0.2c0.2,0,1.4-0.7,1.4-0.7l-1.1,5.1l1.5,1.9l1-1.4
	l-0.5-3.6l1.6-1c0,0-1.3-2.1-1.2-2.2c0.2-0.1,1-0.9,1-0.9l-1.1-2.1l0.8-3.6l1.1,0.8l0.4-3.8l2.4-2l-0.8-1.9l5.3,1.2l0.8-3.2l6.6-5.2
	l2,0.2l1.2,2.2l1.6,0l-1.3-3.4l3.7-6.2l9.9-8.3l6.3-2.9l-3.2-4l-0.3,2l1,0.8l-3.8,1.7l-2.8,2.8l-4.2,1.7l-3.2,4.7l-0.5-0.8l0-0.8
	l0.2-0.7h-0.9l0-0.9l0.9-0.8l-0.9,0.1l0-1l0.8-0.8l0.1-1.6h0.9l-0.9-0.7l0.1-1.9l1.7-1.6l-0.1-3.4l1.8-2.4l2.4-2.6l1.7,1v-1
	c0,0,3.2,0.1,3.3,0.1c0.1,0,2.3-1.8,2.3-1.8l2.2,0.1c0,0-1.2-3.1-1.1-5.3l-0.9-1.4l2.4-5.2l0.7,1.7l1.8,1.8l0.9-0.8v-1l2.7,0.1
	c0,0,1.2,4.3,1.5,5l1.8,0.1l4.5-1.6h1.4l-0.9-2.3l0.7-2.1l2.4,0.9l-1.5,2.4l0.9,0.9l1.7-0.9l2.4,1l1,0l1.3-0.9l5.1-1.7l3.4,4.1
	l0.9-1.6l-1.7-4.3l2,0l2.9-1.6l0.9-0.8l0.7,1.6l1.3,1.1l1.1,3.3l1,1.5h2.8L397.4,772.3z"/>
</g>


</svg>
